<?xml version="1.0" encoding="utf-8"?>
<!-- Generator: Adobe Illustrator 26.4.1, SVG Export Plug-In . SVG Version: 6.00 Build 0)  -->
<svg version="1.1" id="Layer_1" xmlns="http://www.w3.org/2000/svg" xmlns:xlink="http://www.w3.org/1999/xlink" x="0px" y="0px"
	 viewBox="0 0 324.5 49" style="enable-background:new 0 0 324.5 49;" xml:space="preserve">
<style type="text/css">
	.st0{fill:#FFFFFF;}
	.st1{fill:#F13024;}
</style>
<g>
	<g>
		<path class="st0" d="M57.4,38.5V12.4h8.4l11,21.9h0.5V12.4h4.8v26.2h-8.4l-11-21.9h-0.5v21.9H57.4z"/>
		<path class="st0" d="M96.8,39.2c-1.7,0-3.1-0.3-4.4-0.9c-1.3-0.6-2.3-1.3-3.1-2.3c-0.8-1-1.4-2-1.9-3.2c-0.4-1.2-0.6-2.4-0.6-3.7
			v-0.7c0-1.3,0.2-2.5,0.6-3.7c0.4-1.2,1-2.3,1.9-3.2c0.8-1,1.8-1.7,3.1-2.3s2.6-0.8,4.2-0.8c2.1,0,3.9,0.5,5.3,1.4
			c1.4,0.9,2.5,2.1,3.2,3.6c0.7,1.5,1.1,3.1,1.1,4.8V30H91.6c0.2,1.5,0.7,2.8,1.5,3.7c0.8,0.9,2.1,1.4,3.7,1.4c1.2,0,2.2-0.2,3-0.7
			c0.8-0.5,1.3-1.1,1.5-1.8h4.6c-0.4,2-1.4,3.6-3,4.8C101.2,38.6,99.2,39.2,96.8,39.2z M96.6,22.5c-1.4,0-2.5,0.4-3.4,1.2
			c-0.8,0.8-1.4,1.9-1.6,3.3h9.8c-0.2-1.4-0.7-2.5-1.5-3.3C99.1,22.9,98,22.5,96.6,22.5z"/>
		<path class="st0" d="M110.6,38.5V16.1h-2.4v-3.7h7.4v26.2H110.6z"/>
		<path class="st0" d="M128.3,39.2c-2.7,0-4.8-0.6-6.3-1.7c-1.5-1.1-2.3-2.7-2.4-4.7h4.5c0,0.7,0.4,1.3,1.1,1.8
			c0.7,0.5,1.7,0.8,3.2,0.8c1.2,0,2.1-0.2,2.8-0.6s1.1-1,1.1-1.8c0-0.6-0.3-1.2-0.8-1.5c-0.5-0.4-1.5-0.6-2.7-0.8l-1.7-0.2
			c-2.2-0.2-3.9-0.9-5-1.9c-1.2-1-1.7-2.3-1.7-4c0-1.3,0.3-2.4,1-3.4c0.7-0.9,1.6-1.6,2.8-2.1c1.2-0.5,2.5-0.7,4.1-0.7
			c2.4,0,4.3,0.5,5.8,1.6c1.5,1.1,2.3,2.6,2.3,4.6h-4.5c-0.1-0.7-0.4-1.2-1-1.7c-0.6-0.5-1.5-0.7-2.7-0.7c-1.1,0-1.9,0.2-2.4,0.6
			c-0.6,0.4-0.9,0.9-0.9,1.6c0,0.6,0.2,1.1,0.7,1.4c0.5,0.3,1.2,0.6,2.3,0.7l1.7,0.2c2.3,0.2,4.1,0.9,5.4,1.9c1.3,1,2,2.4,2,4.2
			c0,1.3-0.4,2.4-1.1,3.4c-0.7,0.9-1.7,1.7-3,2.2C131.6,38.9,130.1,39.2,128.3,39.2z"/>
		<path class="st0" d="M150.3,39.2c-2.3,0-4.2-0.5-5.8-1.4c-1.6-0.9-2.8-2.2-3.6-3.7c-0.8-1.5-1.2-3.2-1.2-4.9v-0.8
			c0-1.8,0.4-3.5,1.3-5c0.8-1.5,2.1-2.8,3.7-3.7c1.6-0.9,3.5-1.4,5.7-1.4c2.2,0,4.1,0.5,5.7,1.4c1.6,0.9,2.8,2.2,3.7,3.7
			c0.8,1.5,1.3,3.2,1.3,5v0.8c0,1.7-0.4,3.3-1.2,4.9c-0.8,1.5-2,2.8-3.6,3.7C154.5,38.8,152.6,39.2,150.3,39.2z M150.3,35
			c1.8,0,3.2-0.6,4.2-1.7c1-1.2,1.5-2.6,1.5-4.4c0-1.8-0.5-3.2-1.5-4.4c-1-1.2-2.4-1.8-4.1-1.8c-1.8,0-3.2,0.6-4.2,1.8
			c-1,1.2-1.5,2.6-1.5,4.4c0,1.8,0.5,3.2,1.5,4.4C147.1,34.4,148.5,35,150.3,35z"/>
		<path class="st0" d="M165.3,38.5V19.1h3.9v4.8c0.8-3.6,3.1-5.4,6.7-5.4h0.2c2.3,0,4.1,0.8,5.3,2.3c1.2,1.5,1.8,3.7,1.8,6.7v11.1
			h-5V27c0-1.2-0.3-2.2-1-2.9c-0.7-0.7-1.6-1.1-2.8-1.1c-1.2,0-2.2,0.4-3,1.1c-0.8,0.8-1.1,1.8-1.1,3v11.4H165.3z"/>
	</g>
	<g>
		<path class="st1" d="M315.9,39.2v-5.7h5.6v5.7H315.9z"/>
	</g>
	<g>
		<path class="st0" d="M205.8,39.2c-2.2,0-4.1-0.4-5.7-1.1c-1.7-0.7-3.1-1.7-4.2-3c-1.1-1.3-2-2.7-2.6-4.3c-0.6-1.6-0.9-3.4-0.9-5.2
			V25c0-1.7,0.3-3.3,0.8-4.9c0.6-1.6,1.4-3,2.5-4.3c1.1-1.3,2.4-2.3,4-3c1.6-0.7,3.4-1.1,5.4-1.1c2.1,0,4,0.4,5.7,1.2
			c1.6,0.8,3,1.9,4,3.4c1,1.4,1.6,3.1,1.8,5h-2.8c-0.2-1.5-0.7-2.8-1.5-3.9c-0.8-1.1-1.9-1.8-3.1-2.4c-1.2-0.5-2.6-0.8-4.1-0.8
			c-2.1,0-3.8,0.5-5.3,1.4c-1.5,1-2.6,2.3-3.5,3.9c-0.8,1.7-1.2,3.6-1.2,5.7c0,2.3,0.4,4.3,1.3,6c0.8,1.7,2,3,3.6,4
			c1.6,1,3.5,1.4,5.7,1.4c1.7,0,3.2-0.3,4.6-0.8c1.4-0.5,2.5-1.3,3.4-2.2v-5.1h-9v-2.3h13.9v2.3h-2.3v6c-1.1,1.5-2.6,2.6-4.4,3.4
			C210.2,38.8,208.1,39.2,205.8,39.2z"/>
		<path class="st0" d="M224.6,38.6V21.8h-3v-2.2h5.7v19H224.6z M225.1,16.1c-0.6,0-1.1-0.2-1.5-0.5c-0.3-0.3-0.5-0.8-0.5-1.3
			c0-0.5,0.2-1,0.5-1.3c0.3-0.3,0.8-0.5,1.5-0.5c0.6,0,1.1,0.2,1.4,0.5c0.3,0.3,0.5,0.8,0.5,1.3c0,0.5-0.2,1-0.5,1.3
			C226.2,16,225.8,16.1,225.1,16.1z"/>
		<path class="st0" d="M234.3,38.6v-19h2.2V24c0.4-1.5,1.1-2.7,2.2-3.6c1-0.9,2.4-1.3,4.1-1.3h0.1c1.7,0,3,0.4,4.1,1.3
			c1,0.9,1.7,2.1,2.2,3.6c0.4-1.5,1.2-2.7,2.2-3.6c1-0.9,2.4-1.3,4.1-1.3h0.1c2.2,0,3.9,0.8,5,2.3c1.1,1.5,1.7,3.6,1.7,6.2v11h-2.7
			V27c0-1.7-0.4-3-1.2-4c-0.8-1-2-1.5-3.5-1.5c-1.6,0-2.8,0.5-3.7,1.5c-0.9,1-1.4,2.4-1.4,4.1v11.4h-2.7V27c0-1.7-0.4-3-1.2-4
			c-0.8-1-2-1.5-3.5-1.5c-1.6,0-2.8,0.5-3.7,1.5c-0.9,1-1.4,2.4-1.4,4.1v11.4H234.3z"/>
		<path class="st0" d="M277.2,39.2c-1.6,0-3.1-0.3-4.3-0.8c-1.2-0.6-2.3-1.3-3.1-2.3c-0.8-0.9-1.5-2-1.9-3.2
			c-0.4-1.2-0.7-2.4-0.7-3.6v-0.5c0-1.2,0.2-2.4,0.7-3.6c0.5-1.2,1.1-2.2,2-3.2c0.9-0.9,1.9-1.7,3.1-2.3c1.2-0.6,2.6-0.8,4.2-0.8
			c1.6,0,3,0.3,4.2,0.8c1.2,0.6,2.3,1.3,3.2,2.3c0.9,0.9,1.5,2,2,3.2c0.4,1.2,0.7,2.4,0.7,3.6v0.5c0,1.2-0.2,2.4-0.6,3.6
			c-0.4,1.2-1.1,2.2-1.9,3.2c-0.8,0.9-1.9,1.7-3.1,2.3C280.3,38.9,278.9,39.2,277.2,39.2z M277.2,36.8c1.6,0,2.9-0.3,4-1
			c1.1-0.7,1.9-1.6,2.5-2.8c0.6-1.2,0.9-2.5,0.9-3.9c0-1.4-0.3-2.7-0.9-3.9c-0.6-1.2-1.4-2.1-2.5-2.8c-1.1-0.7-2.4-1-3.9-1
			c-1.5,0-2.8,0.3-3.9,1c-1.1,0.7-1.9,1.6-2.5,2.8c-0.6,1.2-0.9,2.5-0.9,3.9c0,1.4,0.3,2.7,0.9,3.9c0.6,1.2,1.4,2.1,2.5,2.8
			C274.4,36.5,275.7,36.8,277.2,36.8z M275.8,16.7l3.1-6.9h2.8l-3.7,6.9H275.8z"/>
		<path class="st0" d="M292.7,38.6v-19h2.2v4.4c0.4-1.6,1.2-2.8,2.3-3.7c1.1-0.9,2.6-1.3,4.4-1.3h0.1c2.4,0,4.2,0.7,5.3,2.2
			c1.2,1.5,1.8,3.6,1.8,6.3v11h-2.7V27c0-1.6-0.5-3-1.4-4c-0.9-1-2.2-1.5-3.8-1.5c-1.7,0-3,0.5-4,1.6c-1,1-1.5,2.4-1.5,4.1v11.4
			H292.7z"/>
	</g>
</g>
<g>
	<g>
		<g>
			<polygon class="st1" points="1.6,12.5 1.6,15.8 5.6,20.5 5.6,14.6 			"/>
		</g>
		<g>
			<polygon class="st1" points="1.6,44.6 5.6,44.6 5.6,20.5 1.6,15.8 			"/>
		</g>
		<g>
			<polygon class="st1" points="1.6,12.5 5.6,14.6 1.6,9.8 			"/>
		</g>
		<g>
			<polygon class="st1" points="38.7,40.6 7,4.4 2,4.4 34,40.6 27.5,40.6 5.6,14.6 5.6,20.5 26.2,44.6 30.9,44.6 32,44.6 37.5,44.6 
				42.2,44.6 			"/>
		</g>
		<g>
			<polygon class="st1" points="42,33.4 42,19.2 42,15.2 38,15.2 33.3,15.2 33.3,19.2 38,19.2 38,28.8 20.1,8.4 42.2,8.4 42.2,4.4 
				16.6,4.4 15.7,4.4 11.7,4.4 42.2,38.9 42.1,33.5 			"/>
		</g>
		<g>
			<rect x="42.2" y="4.4" class="st1" width="0.1" height="4"/>
		</g>
	</g>
</g>
</svg>
