<?xml version="1.0" encoding="utf-8"?>
<!-- Generator: Adobe Illustrator 26.4.1, SVG Export Plug-In . SVG Version: 6.00 Build 0)  -->
<svg version="1.1" id="Layer_1" xmlns="http://www.w3.org/2000/svg" xmlns:xlink="http://www.w3.org/1999/xlink" x="0px" y="0px"
	 viewBox="0 0 80 80" style="enable-background:new 0 0 80 80;" xml:space="preserve">
<style type="text/css">
	.st0{fill:#F13024;}
</style>
<g>
	<g>
		<g>
			<polygon class="st0" points="2.2,17.7 2.2,23.8 9.6,32.5 9.6,21.7 			"/>
		</g>
		<g>
			<polygon class="st0" points="2.2,77.3 9.6,77.3 9.6,32.5 2.2,23.8 			"/>
		</g>
		<g>
			<polygon class="st0" points="2.2,17.7 9.6,21.7 2.2,12.7 			"/>
		</g>
		<g>
			<polygon class="st0" points="71,69.8 12.2,2.7 3,2.7 62.3,69.8 50.3,69.8 9.6,21.7 9.6,32.5 47.9,77.3 56.6,77.3 58.6,77.3 
				68.8,77.3 77.6,77.3 			"/>
		</g>
		<g>
			<polygon class="st0" points="77.3,56.5 77.3,30.1 77.3,22.7 69.8,22.7 61.1,22.7 61.1,30.1 69.8,30.1 69.8,48 36.7,10.2 
				77.5,10.2 77.5,2.7 30.1,2.7 28.3,2.7 20.9,2.7 77.5,66.8 77.4,56.8 			"/>
		</g>
		<g>
			<rect x="77.5" y="2.7" class="st0" width="0.3" height="7.4"/>
		</g>
	</g>
</g>
</svg>
